Coordinates
version=1
nRows=26
nColumns=24
inDegrees=yes

Units are S.I. units (second, meters, Newtons, ...)
Angles are in degrees.

endheader
time	pelvis_tilt	pelvis_list	pelvis_rotation	pelvis_tx	pelvis_ty	pelvis_tz	hip_flexion_r	hip_adduction_r	hip_rotation_r	knee_angle_r	ankle_angle_r	subtalar_angle_r	mtp_angle_r	hip_flexion_l	hip_adduction_l	hip_rotation_l	knee_angle_l	ankle_angle_l	subtalar_angle_l	mtp_angle_l	lumbar_extension	lumbar_bending	lumbar_rotation
      4.35500000	      8.79586891	     10.27527460	     -5.10928042	      0.59201862	      0.97903888	      0.02632609	     -8.08294406	    -13.92953024	     -3.19834963	    -40.28643110	      4.16714733	     -7.44823116	     27.31505619	     12.89268603	     10.56602240	    -19.82116914	    -12.75478803	     -5.69931888	      0.00706347	     43.15841810	    -25.87455997	    -14.59567735	     -2.34189516
      4.36000000	      8.71791749	     10.48954478	     -5.17540148	      0.59718271	      0.97906693	      0.02541688	     -7.09467392	    -14.23622143	     -2.67858401	    -42.03978865	      3.20497141	     -7.68597525	     27.55890658	     13.04462901	     10.78709527	    -19.67950127	    -13.37174944	     -5.53921666	     -0.52569839	     42.85626419	    -25.75388277	    -14.84554339	     -2.31024825
      4.36500000	      8.62397599	     10.70348924	     -5.20592594	      0.60233131	      0.97904883	      0.02452427	     -6.08632581	    -14.51932003	     -2.19006407	    -43.75070380	      2.11716336	     -8.09308140	     28.92249042	     13.19751734	     11.00294331	    -19.56587285	    -13.98978872	     -5.16308532	     -0.61498470	     41.52077137	    -25.61991725	    -15.08576598	     -2.31583707
      4.37000000	      8.56814970	     10.92194634	     -5.26086544	      0.60746471	      0.97907841	      0.02359199	     -5.10239920	    -14.81611312	     -1.69283172	    -45.43742597	      1.26419615	     -8.22536324	     29.11521623	     13.27498934	     11.25214325	    -19.46933888	    -14.50888302	     -4.96389540	     -1.03743528	     41.19114985	    -25.51726846	    -15.32740356	     -2.30505265
      4.37500000	      8.47343875	     11.12951560	     -5.29085462	      0.61254792	      0.97904016	      0.02267056	     -4.07136908	    -15.07805186	     -1.20574931	    -47.08526856	      0.46223053	     -8.38293305	     29.47114844	     13.37648598	     11.48641150	    -19.40810962	    -15.00530973	     -4.68528814	     -1.25979656	     40.62557887	    -25.37481565	    -15.55025046	     -2.29978855
      4.38000000	      8.42297437	     11.31674595	     -5.24977655	      0.61768932	      0.97910508	      0.02167981	     -3.15407749	    -15.30772636	     -0.82106072	    -48.60626651	     -0.34584932	     -8.60236124	     30.65804237	     13.38412424	     11.72352102	    -19.30506352	    -15.46706171	     -4.19965729	     -1.11770750	     38.74467212	    -25.28897314	    -15.72287810	     -2.37221756
      4.38500000	      8.39393002	     11.50697113	     -5.27466374	      0.62274701	      0.97916431	      0.02074620	     -2.21771386	    -15.54396664	     -0.37229927	    -50.11898374	     -0.84590624	     -8.55534450	     30.81633539	     13.34594704	     11.96904847	    -19.29459438	    -15.83467327	     -3.94231106	     -1.31188136	     38.40249416	    -25.21344284	    -15.91801578	     -2.38905911
      4.39000000	      8.30082306	     11.64839200	     -5.18934385	      0.62775320	      0.97917492	      0.01973810	     -1.26802505	    -15.69428715	     -0.02248382	    -51.53618594	     -1.29295070	     -8.61243308	     31.33537496	     13.36418932	     12.16331837	    -19.23290968	    -16.23584331	     -3.50794433	     -1.15510594	     37.18239523	    -25.09256293	    -16.02199019	     -2.51582395
      4.39500000	      8.31442434	     11.79705571	     -5.23226017	      0.63276844	      0.97934538	      0.01884530	     -0.40514237	    -15.86819458	      0.42370651	    -52.88304186	     -1.53582810	     -8.47758962	     31.56526771	     13.21468770	     12.37923065	    -19.28686192	    -16.49269066	     -3.19860487	     -1.21487969	     36.59884542	    -25.05257036	    -16.17313672	     -2.47746608
      4.40000000	      8.30539116	     11.91952202	     -5.17264295	      0.63778460	      0.97954481	      0.01790281	      0.41490143	    -15.99075308	      0.74533975	    -54.12343952	     -1.72973834	     -8.49639229	     32.12441072	     13.06558975	     12.57526754	    -19.26755685	    -16.76259379	     -2.70864958	     -0.92663343	     34.75374167	    -25.00806648	    -16.26460151	     -2.57243106
      4.40500000	      8.24564814	     12.00785461	     -5.12625159	      0.64266747	      0.97965842	      0.01699681	      1.30961505	    -16.05491953	      1.10419783	    -55.33127728	     -1.73161777	     -8.43799900	     32.29363301	     12.97666695	     12.72099112	    -19.30665830	    -17.02148773	     -2.37272827	     -0.81692394	     34.16238601	    -24.91081547	    -16.32178086	     -2.64603818
      4.41000000	      8.18941482	     12.08626714	     -5.08818547	      0.64755111	      0.97981816	      0.01611912	      2.18485900	    -16.10285692	      1.44751106	    -56.45695231	     -1.60581311	     -8.36832340	     32.51717802	     12.85974446	     12.85851516	    -19.34660379	    -17.24570438	     -1.97860247	     -0.61784545	     33.17250555	    -24.80759957	    -16.37085438	     -2.68604155
      4.41500000	      8.16532196	     12.13014228	     -5.09783102	      0.65237071	      0.98004251	      0.01532068	      3.03269722	    -16.10431711	      1.82903766	    -57.51234370	     -1.39205478	     -8.20607495	     32.68293625	     12.69937025	     12.95513628	    -19.44346957	    -17.44534516	     -1.61145768	     -0.47290994	     32.42535628	    -24.73167512	    -16.39861781	     -2.67659418
      4.42000000	      8.11389212	     12.18237399	     -5.03282508	      0.65718073	      0.98026663	      0.01447012	      3.86825037	    -16.11247787	      2.09794570	    -58.48782553	     -1.12295652	     -8.14340837	     32.86212605	     12.56259054	     13.06307158	    -19.48218714	    -17.66391014	     -1.17009308	     -0.15894337	     31.04455498	    -24.64211741	    -16.41119386	     -2.79513054
      4.42500000	      8.08394236	     12.20540818	     -5.05117463	      0.66194436	      0.98053508	      0.01372901	      4.70143684	    -16.07493708	      2.44607837	    -59.39815053	     -0.73032630	     -8.02440758	     32.97629930	     12.39112750	     13.13426548	    -19.57272279	    -17.83472830	     -0.81965406	      0.00886642	     30.40417833	    -24.55344072	    -16.41839384	     -2.76074371
      4.43000000	      8.02583584	     12.21822121	     -5.05071351	      0.66665897	      0.98077996	      0.01299508	      5.55486887	    -16.01817383	      2.75761992	    -60.24580644	     -0.29738826	     -7.92616206	     33.06329118	     12.26072362	     13.18799469	    -19.64874811	    -18.03761055	     -0.42747708	      0.21882258	     29.47574100	    -24.43922028	    -16.40961119	     -2.76084432
      4.43500000	      8.01328491	     12.20810311	     -4.98448766	      0.67141574	      0.98116513	      0.01220320	      6.28653536	    -15.94820639	      2.94655902	    -60.97308030	      0.19183663	     -7.85171883	     33.08397035	     12.05652177	     13.23644827	    -19.61965668	    -18.23786314	      0.09338187	      0.59528182	     27.66036254	    -24.38861262	    -16.35148145	     -2.85264764
      4.44000000	      8.02678621	     12.23234644	     -5.02580395	      0.67617802	      0.98158328	      0.01154574	      7.03261057	    -15.91033417	      3.22547696	    -61.65052368	      0.71377969	     -7.74504968	     33.16209119	     11.80893820	     13.31230605	    -19.70233712	    -18.35148366	      0.36274733	      0.75936031	     27.47967632	    -24.33557489	    -16.36748652	     -2.85445663
      4.44500000	      7.85869951	     12.22635267	     -5.04163100	      0.68074160	      0.98170229	      0.01092085	      8.01153305	    -15.78912258	      3.52300856	    -62.32232451	      1.17554084	     -7.88861810	     33.09387526	     11.81716290	     13.32391656	    -19.73977967	    -18.58388189	      0.77670243	      0.89355472	     26.30395958	    -24.09601761	    -16.34763310	     -2.79787305
      4.45000000	      7.83740376	     12.22470850	     -5.02861812	      0.68543823	      0.98211411	      0.01024793	      8.74981908	    -15.71742366	      3.70446083	    -62.85401895	      1.75717160	     -7.79210252	     32.96284568	     11.62369167	     13.36564968	    -19.75095077	    -18.77461842	      1.28710202	      1.27549013	     24.61349976	    -24.02095012	    -16.31749273	     -2.85668007
      4.45500000	      7.88090891	     12.22401630	     -5.09439574	      0.69015525	      0.98262563	      0.00966945	      9.42686808	    -15.64148550	      3.93722461	    -63.30907677	      2.32058763	     -7.71631562	     33.01536056	     11.33062617	     13.41864336	    -19.80161157	    -18.86761998	      1.56092918	      1.40009587	     24.39680936	    -23.99451631	    -16.31265826	     -2.80861416
      4.46000000	      7.79097870	     12.22476271	     -5.08515370	      0.69479002	      0.98295172	      0.00903741	     10.23713242	    -15.55186795	      4.09631249	    -63.72248142	      2.84258072	     -7.82164008	     32.74313186	     11.21469693	     13.45788438	    -19.77014757	    -19.05756202	      2.06966246	      1.67564369	     22.46340084	    -23.84120873	    -16.28811719	     -2.84164102
      4.46500000	      7.82039561	     12.21631791	     -5.16480203	      0.69949858	      0.98348250	      0.00851550	     10.90537669	    -15.45988918	      4.29732543	    -64.03063224	      3.38357220	     -7.78516685	     32.78003748	     10.92171684	     13.50092881	    -19.81308348	    -19.12366524	      2.34507834	      1.81092102	     22.28408111	    -23.79363547	    -16.28231696	     -2.76391554
      4.47000000	      7.72846617	     12.20945427	     -5.20685050	      0.70408660	      0.98381155	      0.00796849	     11.71689856	    -15.34054613	      4.48745899	    -64.31380513	      3.86474258	     -7.91360777	     32.56779285	     10.79521758	     13.53101433	    -19.81111097	    -19.26350030	      2.74221655	      1.93705602	     21.08914589	    -23.62705728	    -16.26546457	     -2.67571906
      4.47500000	      7.80276471	     12.22970117	     -5.21568620	      0.70890065	      0.98447580	      0.00733994	     12.25473900	    -15.31812628	      4.54370234	    -64.44656307	      4.39900307	     -7.86086670	     32.56550105	     10.39868161	     13.63337961	    -19.78071202	    -19.25126424	      3.01274921	      2.16302726	     20.79107694	    -23.63899386	    -16.26149346	     -2.74152579
      4.48000000	      7.78845252	     12.21044072	     -5.23860618	      0.71354182	      0.98496882	      0.00679657	     12.91530810	    -15.20049178	      4.65040269	    -64.55825308	      4.86544361	     -7.98282164	     32.11150503	     10.14511112	     13.66904833	    -19.75102481	    -19.33883958	      3.51733618	      2.40565504	     18.81320837	    -23.56317166	    -16.22761500	     -2.70129688
